<svg xmlns:dc="http://purl.org/dc/elements/1.1/" xmlns:cc="http://creativecommons.org/ns#" xmlns:rdf="http://www.w3.org/1999/02/22-rdf-syntax-ns#" xmlns:svg="http://www.w3.org/2000/svg" xmlns="http://www.w3.org/2000/svg" xmlns:xlink="http://www.w3.org/1999/xlink" id="svg42982" viewBox="0 0 1024 768" height="768px" width="1024px" version="1.1">
  <metadata id="metadata42988">
    <rdf:rdf>
      <cc:work rdf:about="">
        <dc:format>image/svg+xml</dc:format>
        <dc:type rdf:resource="http://purl.org/dc/dcmitype/StillImage"></dc:type>
      </cc:work>
    </rdf:rdf>
  </metadata>
  <defs id="defs42986"></defs>
  <linearGradient spreadMethod="pad" y2="30%" x2="-10%" y1="120%" x1="30%" id="3d_gradient2-logo-314035f7-bc3b-420b-800d-980c73c66475">
    <stop id="stop42963" stop-opacity="1" stop-color="#ffffff" offset="0%"></stop>
    <stop id="stop42965" stop-opacity="1" stop-color="#000000" offset="100%"></stop>
  </linearGradient>
  <linearGradient gradientTransform="rotate(-30)" spreadMethod="pad" y2="30%" x2="-10%" y1="120%" x1="30%" id="3d_gradient3-logo-314035f7-bc3b-420b-800d-980c73c66475">
    <stop id="stop42968" stop-opacity="1" stop-color="#ffffff" offset="0%"></stop>
    <stop id="stop42970" stop-opacity="1" stop-color="#cccccc" offset="50%"></stop>
    <stop id="stop42972" stop-opacity="1" stop-color="#000000" offset="100%"></stop>
  </linearGradient>
  <g id="logo-group">
    <image xlink:href="" id="container" x="272" y="144" width="480" height="480" style="display: none;" transform="translate(0 0)"></image>
    <g id="logo-center" transform="translate(0 0)">
      <image xlink:href="" id="icon_container" style="display: none;" x="0" y="0"></image>
      <g id="slogan" style="font-style:oblique;font-weight:normal;font-size:32px;line-height:1;font-family:Lora;font-variant-ligatures:none;text-align:center;text-anchor:middle" transform="translate(0 0)"></g>
      <g id="title" style="font-style:normal;font-weight:normal;font-size:72px;line-height:1;font-family:'Brandmark Serif 2';font-variant-ligatures:normal;text-align:center;text-anchor:middle" transform="translate(0 0)">
        <path id="path42991" style="font-style:normal;font-weight:normal;font-size:72px;line-height:1;font-family:'Brandmark Serif 2';font-variant-ligatures:normal;text-align:center;text-anchor:middle" d="m 437.91312,0.324 0.144,0.036 5.40001,-15.624 -0.144,-0.072 c -0.32401,0.324 -0.82801,0.684 -1.296,0.684 -1.476,0 -3.27601,-3.96 -8.56801,-13.68 -2.196,-4.032 -3.132,-6.516 -0.036,-7.524 V -36 h -16.91999 v 0.144 c 2.26799,0.576 5.47199,4.428 8.35199,9.612 4.96801,8.964 13.068,23.868 13.068,26.568 z m -0.53999,-36.18 c 1.90799,0.576 5.36399,4.248 7.812,9.612 4.104,8.964 11.01599,23.868 10.90799,26.532 l 0.144,0.036 5.58001,-16.02 -0.144,-0.072 c -0.324,0.468 -0.72001,0.9 -1.15201,0.9 -1.368,0 -2.592,-3.06 -6.876,-12.816 -2.088,-4.752 -3.06,-7.164 0.036,-8.172 V -36 h -16.30799 z m 20.44799,0 c 4.932,0.648 7.848,5.868 5.724,14.436 l 0.144,0.072 c 3.096,-8.352 6.3,-12.888 10.44,-14.508 V -36 h -16.308 z" stroke-width="0" stroke-linejoin="miter" stroke-miterlimit="2" fill="#ffffff" stroke="#ffffff" transform="translate(0 323.64297999999997) translate(354.03188605 50.828) scale(1.67) translate(-416.49313 36)"></path>
        <path id="path42993" style="font-style:normal;font-weight:normal;font-size:72px;line-height:1;font-family:'Brandmark Serif 2';font-variant-ligatures:normal;text-align:center;text-anchor:middle" d="m 477.28362,-25.488 c 6.948,0 9.468,-8.1 12.708,-16.668 2.844,-7.524 5.18401,-14.616 9.79201,-14.616 2.33999,0 4.392,1.836 5.58,3.168 l 0.108,-0.108 c -2.41201,-3.348 -5.18401,-7.236 -10.584,-7.236 -6.55201,0 -8.46001,5.724 -12.42001,15.876 -3.204,8.172 -5.39999,16.344 -9.93599,16.344 -1.296,0 -2.70001,-0.648 -3.49201,-1.08 l -0.108,0.108 c 1.152,1.296 4.212,4.212 8.352,4.212 z m -4.75199,16.776 c 0,5.796 4.17599,9 9.68399,9 4.428,0 7.416,-2.088 8.82,-3.384 l -0.072,-0.144 c -1.116,0.756 -2.484,1.368 -3.816,1.368 -3.132,0 -4.968,-3.384 -4.968,-7.74 0,-5.112 2.41201,-10.044 8.136,-11.16 v -0.144 c -7.30799,0.252 -17.78399,2.844 -17.78399,12.204 z m 17.42399,-27.036 0.036,0.144 c 3.67201,-0.36 3.56401,3.492 3.56401,10.044 0,6.156 -0.28801,11.7 -0.28801,17.532 0,4.536 0.792,8.28 6.624,8.28 3.204,0 6.372,-1.188 8.46001,-2.808 l -0.072,-0.144 c -4.28399,1.836 -6.084,-0.828 -6.084,-6.264 0,-6.264 0.28801,-10.98 0.28801,-16.704 0,-9.144 -4.78801,-10.62 -8.56801,-10.62 -1.692,0 -3.05999,0.288 -3.96,0.54 z m 17.388,-17.784 c 3.24,0.54 4.932,2.376 4.932,6.768 v 40.14 c 0,3.6 -1.62,5.76 -4.608,6.48 V 0 h 17.85601 v -0.144 c -3.06001,-0.72 -4.60801,-3.024 -4.60801,-6.48 V -57.6 c -4.39199,1.656 -8.388,2.808 -13.572,3.924 z" stroke-width="0" stroke-linejoin="miter" stroke-miterlimit="2" fill="#ffffff" stroke="#ffffff" transform="translate(0 323.64297999999997) translate(441.60416435 9.164840000000005) scale(1.67) translate(-468.93162 60.948)"></path>
        <path id="path42995" style="font-style:normal;font-weight:normal;font-size:72px;line-height:1;font-family:'Brandmark Serif 2';font-variant-ligatures:normal;text-align:center;text-anchor:middle" d="M 526.60587,-0.144 V 0 h 17.856 v -0.144 c -3.05999,-0.72 -4.60799,-3.024 -4.60799,-6.48 V -57.6 c -4.39201,1.656 -8.38801,2.808 -13.572,3.924 v 0.144 c 3.24,0.54 4.932,2.376 4.932,6.768 v 40.14 c 0,3.6 -1.62,5.76 -4.60801,6.48 z" stroke-width="0" stroke-linejoin="miter" stroke-miterlimit="2" fill="#ffffff" stroke="#ffffff" transform="translate(0 323.64297999999997) translate(537.37909855 14.756000000000007) scale(1.67) translate(-526.28188 57.6)"></path>
        <path id="path42997" style="font-style:normal;font-weight:normal;font-size:72px;line-height:1;font-family:'Brandmark Serif 2';font-variant-ligatures:normal;text-align:center;text-anchor:middle" d="m 565.04038,0.288 c 10.00799,0.072 14.4,-6.372 15.29999,-9.504 l -0.144,-0.036 c -1.58399,3.78 -6.192,8.316 -12.05999,8.316 -7.63201,0 -11.41201,-7.596 -11.48401,-17.928 -0.036,-9.036 3.024,-16.488 7.05601,-17.28 v -0.144 c -9.864,0.36 -16.956,8.424 -16.70401,19.44 0.25201,10.836 7.596,17.064 18.03601,17.136 z m -4.788,-20.052 20.77199,-0.18 c -0.252,-9.072 -5.57999,-15.912 -14.076,-16.344 v 0.144 c 2.7,1.008 4.68,4.788 4.788,9.468 0.072,4.572 -1.728,6.084 -11.48399,6.768 z" stroke-width="0" stroke-linejoin="miter" stroke-miterlimit="2" fill="#ffffff" stroke="#ffffff" transform="translate(0 323.64297999999997) translate(571.97478515 50.34704000000001) scale(1.67) translate(-546.99786 36.288)"></path>
        <path id="path42999" style="font-style:normal;font-weight:normal;font-size:72px;line-height:1;font-family:'Brandmark Serif 2';font-variant-ligatures:normal;text-align:center;text-anchor:middle" d="m 582.4565,-36 v 0.144 c 3.24,0.9 5.004,3.456 4.932,7.848 l -0.216,17.496 c -0.108,7.488 2.916,10.8 8.856,10.8 4.104,0 7.308,-1.62 9.648,-4.104 l -0.072,-0.144 c -1.512,1.224 -3.24,2.052 -4.86,2.052 -3.348,0 -4.716,-3.42 -4.716,-8.82 v -14.94 c 0,-6.552 3.132,-9.036 9.144,-10.188 V -36 h -7.38 c -1.26,0 -1.656,-0.576 -1.764,-1.584 v -10.512 h -0.144 c -2.628,6.516 -6.588,12.024 -13.428,12.096 z" stroke-width="0" stroke-linejoin="miter" stroke-miterlimit="2" fill="#ffffff" stroke="#ffffff" transform="translate(0 323.64297999999997) translate(631.19071395 30.627680000000005) scale(1.67) translate(-582.4565 48.096)"></path>
      </g>
      <image xlink:href="" id="icon" style="display: none;" x="0" y="0"></image>
    </g>
  </g>
</svg>